<svg xmlns="http://www.w3.org/2000/svg" viewBox="0 0 64 64" role="img" aria-label="KidSafe Chat icon">
  <rect width="64" height="64" rx="16" fill="#ffffff"/>
  <defs>
    <pattern id="blueA" width="8" height="8" patternUnits="userSpaceOnUse" patternTransform="rotate(58)">
      <line x1="0" y1="0" x2="0" y2="8" stroke="#0033A0" stroke-width="3"/>
    </pattern>
    <pattern id="blueB" width="8" height="8" patternUnits="userSpaceOnUse" patternTransform="rotate(122)">
      <line x1="0" y1="0" x2="0" y2="8" stroke="#0033A0" stroke-width="3"/>
    </pattern>
    <pattern id="orangeA" width="8" height="8" patternUnits="userSpaceOnUse" patternTransform="rotate(58)">
      <line x1="0" y1="0" x2="0" y2="8" stroke="#D64309" stroke-width="3"/>
    </pattern>
    <pattern id="orangeB" width="8" height="8" patternUnits="userSpaceOnUse" patternTransform="rotate(122)">
      <line x1="0" y1="0" x2="0" y2="8" stroke="#D64309" stroke-width="3"/>
    </pattern>
  </defs>
  <g transform="translate(11 7)">
    <polygon points="21,2 0,14 0,36 21,48" fill="url(#blueB)"/>
    <polygon points="21,2 42,14 42,36 21,48" fill="url(#blueA)"/>
    <line x1="21" y1="2" x2="21" y2="48" stroke="#0033A0" stroke-width="2.6"/>
  </g>
  <g transform="translate(28 26) scale(0.56)">
    <polygon points="21,2 0,14 0,36 21,48" fill="url(#orangeB)" opacity="0.95"/>
    <polygon points="21,2 42,14 42,36 21,48" fill="url(#orangeA)" opacity="0.95"/>
    <line x1="21" y1="2" x2="21" y2="48" stroke="#D64309" stroke-width="2.6"/>
  </g>
</svg>
