<svg xmlns="http://www.w3.org/2000/svg" width="420" height="420" viewBox="0 0 420 420" fill="none">
  <rect width="420" height="420" fill="#DCE9FF"/>
  <g opacity="0.72">
    <g stroke="#3A67B8" stroke-width="8" stroke-linecap="round">
      <path d="M40 96C56 70 96 64 120 84C134 66 166 61 189 80C212 71 237 83 248 104"/>
      <path d="M248 104H70"/>
      <path d="M224 230C242 202 286 196 310 220C328 197 363 196 383 221"/>
      <path d="M383 221H210"/>
      <path d="M94 318C108 296 142 292 162 310C176 292 206 289 224 307"/>
      <path d="M224 307H82"/>
    </g>
    <g fill="#6E92D8" opacity="0.92">
      <path d="M88 130C94 144 90 156 82 165C74 156 70 144 76 130C79 123 85 123 88 130Z"/>
      <path d="M134 146C140 160 136 172 128 181C120 172 116 160 122 146C125 139 131 139 134 146Z"/>
      <path d="M178 132C184 146 180 158 172 167C164 158 160 146 166 132C169 125 175 125 178 132Z"/>
      <path d="M256 246C262 260 258 272 250 281C242 272 238 260 244 246C247 239 253 239 256 246Z"/>
      <path d="M302 262C308 276 304 288 296 297C288 288 284 276 290 262C293 255 299 255 302 262Z"/>
      <path d="M348 246C354 260 350 272 342 281C334 272 330 260 336 246C339 239 345 239 348 246Z"/>
      <path d="M108 336C114 350 110 362 102 371C94 362 90 350 96 336C99 329 105 329 108 336Z"/>
      <path d="M154 352C160 366 156 378 148 387C140 378 136 366 142 352C145 345 151 345 154 352Z"/>
      <path d="M200 336C206 350 202 362 194 371C186 362 182 350 188 336C191 329 197 329 200 336Z"/>
    </g>
  </g>
</svg>
