<svg xmlns="http://www.w3.org/2000/svg" width="420" height="420" viewBox="0 0 420 420">
  <rect width="420" height="420" fill="#ffffff"/>
  <defs>
    <pattern id="blueA" width="18" height="18" patternUnits="userSpaceOnUse" patternTransform="rotate(58)">
      <line x1="0" y1="0" x2="0" y2="18" stroke="#0A2E8A" stroke-width="5.5"/>
    </pattern>
    <pattern id="blueB" width="18" height="18" patternUnits="userSpaceOnUse" patternTransform="rotate(122)">
      <line x1="0" y1="0" x2="0" y2="18" stroke="#0A2E8A" stroke-width="5.5"/>
    </pattern>
    <pattern id="orangeA" width="18" height="18" patternUnits="userSpaceOnUse" patternTransform="rotate(58)">
      <line x1="0" y1="0" x2="0" y2="18" stroke="#D4543B" stroke-width="5.5"/>
    </pattern>
    <pattern id="orangeB" width="18" height="18" patternUnits="userSpaceOnUse" patternTransform="rotate(122)">
      <line x1="0" y1="0" x2="0" y2="18" stroke="#D4543B" stroke-width="5.5"/>
    </pattern>
    <pattern id="grayA" width="18" height="18" patternUnits="userSpaceOnUse" patternTransform="rotate(58)">
      <line x1="0" y1="0" x2="0" y2="18" stroke="#C8D1E0" stroke-width="5.5"/>
    </pattern>
    <pattern id="grayB" width="18" height="18" patternUnits="userSpaceOnUse" patternTransform="rotate(122)">
      <line x1="0" y1="0" x2="0" y2="18" stroke="#C8D1E0" stroke-width="5.5"/>
    </pattern>
  </defs>

  <g transform="translate(34 24)">
    <polygon points="70,0 10,34 10,102 70,136" fill="url(#blueB)"/>
    <polygon points="70,0 130,34 130,102 70,136" fill="url(#blueA)"/>
    <line x1="70" y1="0" x2="70" y2="136" stroke="#0A2E8A" stroke-width="4"/>
  </g>

  <g transform="translate(208 64)" opacity="0.42">
    <polygon points="70,0 10,34 10,102 70,136" fill="url(#grayB)"/>
    <polygon points="70,0 130,34 130,102 70,136" fill="url(#grayA)"/>
    <line x1="70" y1="0" x2="70" y2="136" stroke="#C8D1E0" stroke-width="4"/>
  </g>

  <g transform="translate(114 214)" opacity="0.88">
    <polygon points="70,0 10,34 10,102 70,136" fill="url(#orangeB)"/>
    <polygon points="70,0 130,34 130,102 70,136" fill="url(#orangeA)"/>
    <line x1="70" y1="0" x2="70" y2="136" stroke="#D4543B" stroke-width="4"/>
  </g>

  <g transform="translate(312 -10)" opacity="0.24">
    <polygon points="70,0 10,34 10,102 70,136" fill="url(#grayB)"/>
    <polygon points="70,0 130,34 130,102 70,136" fill="url(#grayA)"/>
    <line x1="70" y1="0" x2="70" y2="136" stroke="#C8D1E0" stroke-width="4"/>
  </g>

  <g transform="translate(300 240)" opacity="0.25">
    <polygon points="70,0 10,34 10,102 70,136" fill="url(#blueB)"/>
    <polygon points="70,0 130,34 130,102 70,136" fill="url(#blueA)"/>
    <line x1="70" y1="0" x2="70" y2="136" stroke="#0A2E8A" stroke-width="4"/>
  </g>
</svg>
