<svg xmlns="http://www.w3.org/2000/svg" width="420" height="420" viewBox="0 0 420 420">
  <rect width="420" height="420" fill="#e9f5ff"/>
  <g fill="#0084ff" opacity="0.78">
    <path d="M56 74 C72 42 100 42 116 74 C116 98 96 120 86 132 C76 120 56 98 56 74Z"/>
    <path d="M192 124 C208 92 236 92 252 124 C252 148 232 170 222 182 C212 170 192 148 192 124Z"/>
    <path d="M316 82 C332 50 360 50 376 82 C376 106 356 128 346 140 C336 128 316 106 316 82Z"/>
  </g>
  <g stroke="#1d5ed6" stroke-width="10" stroke-linecap="round" opacity="0.76">
    <line x1="76" y1="184" x2="76" y2="340"/>
    <line x1="128" y1="160" x2="128" y2="314"/>
    <line x1="204" y1="214" x2="204" y2="370"/>
    <line x1="256" y1="192" x2="256" y2="346"/>
    <line x1="316" y1="166" x2="316" y2="322"/>
    <line x1="364" y1="196" x2="364" y2="352"/>
  </g>
  <g fill="none" stroke="#9ac7ff" stroke-width="8" opacity="0.75">
    <path d="M14 360 Q 72 328 130 360 T 246 360 T 362 360 T 478 360"/>
  </g>
</svg>