<svg xmlns="http://www.w3.org/2000/svg" width="420" height="420" viewBox="0 0 420 420">
  <rect width="420" height="420" fill="#fff7e5"/>
  <g opacity="0.95">
    <circle cx="84" cy="88" r="42" fill="#ffb703"/>
    <circle cx="84" cy="88" r="24" fill="#ffd166"/>
    <g stroke="#ff8c00" stroke-width="8" stroke-linecap="round">
      <line x1="84" y1="20" x2="84" y2="46"/>
      <line x1="84" y1="130" x2="84" y2="156"/>
      <line x1="16" y1="88" x2="42" y2="88"/>
      <line x1="126" y1="88" x2="152" y2="88"/>
      <line x1="34" y1="38" x2="52" y2="56"/>
      <line x1="116" y1="120" x2="134" y2="138"/>
      <line x1="34" y1="138" x2="52" y2="120"/>
      <line x1="116" y1="56" x2="134" y2="38"/>
    </g>
  </g>
  <g fill="#0a2e8a" opacity="0.88">
    <circle cx="286" cy="84" r="12"/>
    <circle cx="334" cy="118" r="8"/>
    <circle cx="242" cy="132" r="10"/>
    <circle cx="312" cy="56" r="7"/>
  </g>
  <g fill="#d64309" opacity="0.85">
    <rect x="54" y="252" width="132" height="18" rx="9" transform="rotate(-12 54 252)"/>
    <rect x="88" y="298" width="156" height="18" rx="9" transform="rotate(14 88 298)"/>
    <rect x="248" y="268" width="112" height="18" rx="9" transform="rotate(-18 248 268)"/>
  </g>
  <g fill="#0084ff" opacity="0.82">
    <circle cx="312" cy="290" r="48"/>
    <circle cx="352" cy="324" r="24" fill="#4da8ff"/>
    <circle cx="258" cy="334" r="20" fill="#4da8ff"/>
  </g>
</svg>